<?xml version="1.0" standalone="no"?>
<!DOCTYPE svg PUBLIC "-//W3C//DTD SVG 20010904//EN"
 "http://www.w3.org/TR/2001/REC-SVG-20010904/DTD/svg10.dtd">
<svg version="1.0" xmlns="http://www.w3.org/2000/svg"
 width="512.000000pt" height="512.000000pt" viewBox="0 0 512.000000 512.000000"
 preserveAspectRatio="xMidYMid meet">
<metadata>
Created by potrace 1.14, written by Peter Selinger 2001-2017
</metadata>
<g transform="translate(0.000000,512.000000) scale(0.100000,-0.100000)"
fill="#000000" stroke="none">
<path d="M2345 5048 c-93 -38 -183 -76 -200 -83 -16 -7 -205 -86 -420 -175
-214 -89 -403 -168 -420 -175 -16 -8 -147 -62 -290 -120 -143 -59 -273 -113
-290 -120 -16 -8 -59 -26 -95 -40 -158 -65 -198 -97 -220 -170 -9 -30 -11
-208 -7 -690 3 -358 8 -666 11 -685 3 -19 10 -71 16 -115 6 -44 13 -96 16
-115 8 -54 54 -261 59 -269 2 -4 6 -18 8 -32 7 -35 37 -141 47 -164 5 -11 14
-38 20 -60 6 -22 15 -49 20 -60 5 -11 25 -61 45 -112 213 -546 611 -1063 1100
-1429 79 -59 262 -184 269 -184 3 0 43 -22 91 -50 80 -46 196 -104 331 -166
95 -43 164 -39 289 18 222 102 408 209 594 341 706 506 1187 1264 1347 2122
17 92 18 99 29 195 3 30 9 69 11 85 3 17 8 318 11 670 4 458 2 654 -6 691 -19
84 -56 111 -281 204 -107 44 -204 85 -215 90 -21 9 -142 60 -1000 415 -275
113 -520 216 -545 227 -89 41 -135 35 -325 -44z m258 -362 c18 -8 246 -103
507 -211 261 -108 489 -203 505 -210 17 -7 181 -76 365 -152 l335 -139 0 -529
c0 -469 -4 -614 -19 -705 -3 -14 -7 -43 -10 -66 -4 -32 -30 -162 -51 -254 -44
-197 -143 -462 -247 -660 -263 -503 -637 -897 -1133 -1192 -77 -46 -281 -148
-296 -148 -12 0 -201 94 -259 129 -19 11 -48 28 -65 37 -68 38 -312 208 -335
234 -3 3 -27 23 -55 45 -107 85 -290 276 -428 446 -40 49 -196 282 -229 343
-134 243 -200 403 -288 701 -9 29 -45 193 -54 245 -2 14 -7 41 -10 60 -4 19
-9 53 -11 75 -3 22 -8 67 -12 100 -4 33 -8 303 -8 600 l0 539 165 69 c91 38
257 107 370 153 113 47 216 90 230 96 483 203 978 407 988 407 8 1 28 -5 45
-13z"/>
<path d="M3238 3330 c-24 -15 -234 -220 -468 -454 -234 -234 -427 -426 -431
-426 -3 0 -104 99 -225 220 -122 120 -234 224 -250 231 -60 24 -111 23 -167
-5 -97 -47 -135 -134 -106 -241 9 -33 61 -90 312 -343 166 -167 317 -312 335
-324 45 -28 127 -34 177 -13 55 24 1076 1041 1105 1102 34 71 23 148 -30 216
-54 68 -176 86 -252 37z"/>
</g>
</svg>
